<svg width="46" height="58" viewBox="0 0 46 58" fill="none" xmlns="http://www.w3.org/2000/svg">
<rect width="46" height="58" fill="#E6E8EC"/>
<rect x="8" y="14" width="30" height="30" rx="15" fill="white"/>
<path d="M16.6895 34H15.7402V27.8945C15.7402 27.3867 15.7559 26.9062 15.7871 26.4531C15.7051 26.5352 15.6133 26.6211 15.5117 26.7109C15.4102 26.8008 14.9453 27.1816 14.1172 27.8535L13.6016 27.1855L15.8691 25.4336H16.6895V34ZM25.584 34H19.9531V33.1621L22.209 30.8945C22.8965 30.1992 23.3496 29.7031 23.5684 29.4062C23.7871 29.1094 23.9512 28.8203 24.0605 28.5391C24.1699 28.2578 24.2246 27.9551 24.2246 27.6309C24.2246 27.1738 24.0859 26.8125 23.8086 26.5469C23.5312 26.2773 23.1465 26.1426 22.6543 26.1426C22.2988 26.1426 21.9609 26.2012 21.6406 26.3184C21.3242 26.4355 20.9707 26.6484 20.5801 26.957L20.0645 26.2949C20.8535 25.6387 21.7129 25.3105 22.6426 25.3105C23.4473 25.3105 24.0781 25.5176 24.5352 25.9316C24.9922 26.3418 25.2207 26.8945 25.2207 27.5898C25.2207 28.1328 25.0684 28.6699 24.7637 29.2012C24.459 29.7324 23.8887 30.4043 23.0527 31.2168L21.1777 33.0508V33.0977H25.584V34ZM30.0605 29.3652H32.4746V30.1738H30.0605V32.6699H29.2461V30.1738H26.8438V29.3652H29.2461V26.8574H30.0605V29.3652Z" fill="#A1A6B4"/>
</svg>
